# xmcd CD database file
#
# Track frame offsets:
#	150
#	21457
#	37838
#	59777
#	86067
#	104799
#	121175
#	139757
#	159035
#
# Disc length: 2283 seconds
#
# Revision: 0
# Processed by: cddbd v1.4PL0 Copyright (c) Steve Scherf et al.
# Submitted via: CDex 1.40Beta8
#
DISCID=7708e909
DTITLE=Flanagan - The Chosen Few
DYEAR=2001
DGENRE=Blues
TTITLE0=Carry Me Down
TTITLE1=The Chosen Few
TTITLE2=Father, Father (With Seckou Keita)
TTITLE3=Real To Me
TTITLE4=I Didn't Believe (With Jools Holland)
TTITLE5=The Way I'm Feeling
TTITLE6=You And Me History (With Rico Rodriguez)
TTITLE7=She No Show
TTITLE8=All My Days (With Sam Brown)
EXTD=YEAR: 2001 ID3G: 0
EXTT0=
EXTT1=
EXTT2=
EXTT3=
EXTT4=
EXTT5=
EXTT6=
EXTT7=
EXTT8=
PLAYORDER=
